2000 0 1 0           
34 Abaqus, Inc. - Abaqus 6.14-2 - 230 15 ACIS 23.0 Linux 24 Fri Feb  5 12:24:25 2016 
1 9.9999999999999995e-07 1e-10 
-0 body $1 -1 -1 $-1 $2 $-1 $3 T -30 -30 0 30.000000000000004 29.999999999981252 0 #
-1 string_attrib-name_attrib-gen-attrib $-1 -1 $4 $-1 $0 2 1 1 1 1 1 1 1 1 1 1 1 1 1 0 1 1 1 @13 HKS_PART_NAME @4 SEAL #
-2 lump $-1 -1 -1 $-1 $-1 $5 $0 T -30 -30 0 30.000000000000004 29.999999999981252 0 #
-3 transform $-1 -1 1 0 0 0 1 0 0 0 1 0 0 0 1 no_rotate no_reflect no_shear #
-4 string_attrib-name_attrib-gen-attrib $-1 -1 $-1 $1 $0 2 1 1 1 1 1 1 1 1 1 1 1 1 1 0 1 1 1 @18 HKS_ATTRIB_BODY_ID @1 1 #
-5 shell $-1 -1 -1 $-1 $-1 $-1 $6 $-1 $2 T -30 -30 0 30.000000000000004 29.999999999981252 0 #
-6 face $-1 -1 -1 $-1 $7 $8 $5 $-1 $9 forward double out T -30 -30 0 1.5308084989330433e-15 29.999999999981252 0 F #
-7 face $-1 -1 -1 $-1 $-1 $10 $5 $-1 $9 forward double out T -7.3049051260357491e-09 -30 0 30.000000000000004 29.999999999981252 0 F #
-8 loop $-1 -1 -1 $-1 $-1 $11 $6 T -30 -30 0 1.5308084989330433e-15 29.999999999981252 0 periphery $9 F #
-9 plane-surface $-1 -1 -1 $-1 -0.014654244731886812 -6.0510371252959025 0 0 0 1 1 0 0 forward_v I I I I #
-10 loop $-1 -1 -1 $-1 $-1 $12 $7 T -7.3049051260357491e-09 -30 0 30.000000000000004 29.999999999981252 0 periphery $9 F #
-11 coedge $-1 -1 -1 $-1 $13 $14 $12 $15 reversed $8 $-1 #
-12 coedge $-1 -1 -1 $-1 $16 $17 $11 $15 forward $10 $-1 #
-13 coedge $-1 -1 -1 $-1 $18 $11 $-1 $19 forward $8 $-1 #
-14 coedge $-1 -1 -1 $-1 $11 $20 $-1 $21 reversed $8 $-1 #
-15 edge $-1 -1 -1 $-1 $22 -30.525518562634961 $23 -25.525518562653708 $12 $24 forward @7 unknown T -7.3048913559117068e-10 25 0 1.5308084989330433e-15 29.999999999981252 0 #
-16 coedge $-1 -1 -1 $-1 $25 $12 $-1 $26 reversed $10 $-1 #
-17 coedge $-1 -1 -1 $-1 $12 $27 $-1 $28 forward $10 $-1 #
-18 coedge $-1 -1 -1 $-1 $29 $13 $-1 $30 reversed $8 $-1 #
-19 edge $-1 -1 -1 $-1 $22 1.5707963267948966 $31 3.5373647069506484 $13 $32 forward @7 unknown T -24.999999999981252 -4.6380169162782217 0 1.5308084989330433e-15 29.999999999981252 0 #
-20 coedge $-1 -1 -1 $-1 $14 $33 $34 $35 reversed $8 $-1 #
-21 edge $-1 -1 -1 $-1 $23 1.5707963268314211 $36 4.7123889800559695 $14 $37 forward @7 unknown T -20 -15 0 -7.3048913479371522e-10 25 0 #
-22 vertex $-1 -1 -1 $-1 $19 $38 #
-23 vertex $-1 -1 -1 $-1 $21 $39 #
-24 straight-curve $-1 -1 -1 $-1 -4.4597197445400694e-09 -0.52551856265370867 0 -1.4609813312099062e-10 -1 0 I I #
-25 coedge $-1 -1 -1 $-1 $34 $16 $-1 $40 reversed $10 $-1 #
-26 edge $-1 -1 -1 $-1 $41 0 $23 1.5707963268314211 $16 $37 forward @7 unknown T -7.3048999841976566e-10 5 0 20 25 0 #
-27 coedge $-1 -1 -1 $-1 $17 $42 $-1 $43 forward $10 $-1 #
-28 edge $-1 -1 -1 $-1 $44 -0.39604849713418333 $22 1.5707963267948966 $17 $45 forward @7 unknown T 1.5308084989330433e-15 -4.6443934091134018 0 24.999999999981252 29.999999999981252 0 #
-29 coedge $-1 -1 -1 $-1 $46 $18 $-1 $47 forward $8 $-1 #
-30 edge $-1 -1 -1 $-1 $48 2.5723392527154879e-07 $31 0.39577184617353545 $18 $49 forward @7 unknown T -23.067479921322096 -5.4090573727700528 0 -22.912878474779262 -4.6380169162782217 0 #
-31 vertex $-1 -1 -1 $-1 $30 $50 #
-32 ellipse-curve $-1 -1 -1 $-1 0 5 0 0 0 1 24.999999999981252 0 0 1 I I #
-33 coedge $-1 -1 -1 $-1 $20 $51 $-1 $52 forward $8 $-1 #
-34 coedge $-1 -1 -1 $-1 $53 $25 $20 $35 forward $10 $-1 #
-35 edge $-1 -1 -1 $-1 $36 14.474481437346292 $54 19.474481437346292 $34 $55 forward @7 unknown T -7.3049051260357491e-09 -20 0 -6.5744144596333392e-09 -15 0 #
-36 vertex $-1 -1 -1 $-1 $40 $56 #
-37 ellipse-curve $-1 -1 -1 $-1 0 5 0 0 0 1 20 0 0 1 I I #
-38 point $-1 -1 -1 $-1 1.5308084989330433e-15 29.999999999981252 0 #
-39 point $-1 -1 -1 $-1 -7.3048913479371522e-10 25 0 #
-40 edge $-1 -1 -1 $-1 $36 4.7123889800559695 $41 6.2831853071795862 $25 $37 forward @7 unknown T -6.5744144596333392e-09 -15 0 20 5 0 #
-41 vertex $-1 -1 -1 $-1 $40 $57 #
-42 coedge $-1 -1 -1 $-1 $27 $58 $-1 $59 forward $10 $-1 #
-43 edge $-1 -1 -1 $-1 $60 -3.1415924593024211 $44 -2.7455443589235964 $27 $61 forward @7 unknown T 22.91 -5.4159441196773814 0 23.064814670170506 -4.6443934091134018 0 #
-44 vertex $-1 -1 -1 $-1 $28 $62 #
-45 ellipse-curve $-1 -1 -1 $-1 0 5 0 0 0 1 24.999999999981252 0 0 1 I I #
-46 coedge $-1 -1 -1 $-1 $63 $29 $-1 $64 forward $8 $-1 #
-47 edge $-1 -1 -1 $-1 $48 7.6083228606194098e-10 $65 9.5909426279907795 $29 $66 forward @7 unknown T -22.912878474779301 -15 0 -22.912878474779262 -5.4090573727700528 0 #
-48 vertex $-1 -1 -1 $-1 $30 $67 #
-49 ellipse-curve $-1 -1 -1 $-1 -24.912878474779223 -5.4090578872379034 0 0 0 1 2.0000000000000271 0 0 1 I I #
-50 point $-1 -1 -1 $-1 -23.067479921322096 -4.6380169162782217 0 #
-51 coedge $-1 -1 -1 $-1 $33 $68 $-1 $69 forward $8 $-1 #
-52 edge $-1 -1 -1 $-1 $70 0 $54 16.421573289723469 $33 $71 forward @7 unknown T -16.421573297028374 -20 0 -7.3049051252382924e-09 -20 0 #
-53 coedge $-1 -1 -1 $-1 $72 $34 $-1 $73 forward $10 $-1 #
-54 vertex $-1 -1 -1 $-1 $73 $74 #
-55 straight-curve $-1 -1 -1 $-1 -4.4597197445400694e-09 -0.52551856265370867 0 -1.4609813312099062e-10 -1 0 I I #
-56 point $-1 -1 -1 $-1 -6.5744144596333392e-09 -15 0 #
-57 point $-1 -1 -1 $-1 20 5 0 #
-58 coedge $-1 -1 -1 $-1 $42 $75 $-1 $76 forward $10 $-1 #
-59 edge $-1 -1 -1 $-1 $77 0 $60 8.5471821870257259 $42 $78 forward @7 unknown T 22.91 -13.963126306703106 0 22.91 -5.4159441196773805 0 #
-60 vertex $-1 -1 -1 $-1 $43 $79 #
-61 ellipse-curve $-1 -1 -1 $-1 24.91 -5.4159445082521245 0 -0 -0 -1 2.0000000000000377 0 0 1 I I #
-62 point $-1 -1 -1 $-1 23.064814670170506 -4.6443934091134018 0 #
-63 coedge $-1 -1 -1 $-1 $80 $46 $-1 $81 reversed $8 $-1 #
-64 edge $-1 -1 -1 $-1 $65 0 $82 7.6367357448762192 $46 $83 forward @7 unknown T -29.152955203480815 -19.40240562158781 0 -22.912878474779301 -15 0 #
-65 vertex $-1 -1 -1 $-1 $64 $84 #
-66 straight-curve $-1 -1 -1 $-1 -22.912878474779262 -5.4090573720092205 0 -4.0746621038846109e-15 -1 0 I I #
-67 point $-1 -1 -1 $-1 -22.912878474779262 -5.4090573727700528 0 #
-68 coedge $-1 -1 -1 $-1 $51 $85 $-1 $86 forward $8 $-1 #
-69 edge $-1 -1 -1 $-1 $87 2.3561946995868741 $70 4.7123887694974069 $51 $88 forward @7 unknown T -18.421572875253855 -23.414213266244513 0 -16.421573297028374 -20 0 #
-70 vertex $-1 -1 -1 $-1 $52 $89 #
-71 straight-curve $-1 -1 -1 $-1 -16.421573297028374 -20 0 1 0 0 I I #
-72 coedge $-1 -1 -1 $-1 $90 $53 $-1 $91 reversed $10 $-1 #
-73 edge $-1 -1 -1 $-1 $54 16.421573289723469 $92 32.843146579446937 $53 $71 forward @7 unknown T -7.3049051252382924e-09 -20 0 16.421573282418567 -20 0 #
-74 point $-1 -1 -1 $-1 -7.3049051252382924e-09 -20 0 #
-75 coedge $-1 -1 -1 $-1 $58 $93 $-1 $94 forward $10 $-1 #
-76 edge $-1 -1 -1 $-1 $95 2.185016380467955 $77 3.1415924070961108 $58 $96 forward @7 unknown T 22.91 -15.597572203930145 0 23.757357385172945 -13.963126306703106 0 #
-77 vertex $-1 -1 -1 $-1 $59 $97 #
-78 straight-curve $-1 -1 -1 $-1 22.91 -13.963126306703106 0 0 1 0 I I #
-79 point $-1 -1 -1 $-1 22.91 -5.4159441196773814 0 #
-80 coedge $-1 -1 -1 $-1 $98 $63 $-1 $99 forward $8 $-1 #
-81 edge $-1 -1 -1 $-1 $100 -3.1415924117693717 $82 -2.1852076438463941 $63 $101 forward @7 unknown T -30 -21.03663103994667 0 -29.152955203480815 -19.40240562158781 0 #
-82 vertex $-1 -1 -1 $-1 $81 $102 #
-83 straight-curve $-1 -1 -1 $-1 -22.912878474779301 -15 0 -0.81711308825740414 -0.57647740718821561 0 I I #
-84 point $-1 -1 -1 $-1 -22.912878474779301 -15 0 #
-85 coedge $-1 -1 -1 $-1 $68 $103 $-1 $104 reversed $8 $-1 #
-86 edge $-1 -1 -1 $-1 $105 0 $87 3.1819813228607856 $68 $106 forward @7 unknown T -17.835786733755487 -25.664213837248315 0 -15.585786162751685 -23.414213266244513 0 #
-87 vertex $-1 -1 -1 $-1 $69 $107 #
-88 ellipse-curve $-1 -1 -1 $-1 -16.421572875253808 -22 0 -0 -0 -1 2.0000000000000449 0 0 1 I I #
-89 point $-1 -1 -1 $-1 -16.421573297028374 -20 0 #
-90 coedge $-1 -1 -1 $-1 $108 $72 $-1 $109 forward $10 $-1 #
-91 edge $-1 -1 -1 $-1 $110 -0.78539795801090428 $92 1.5707961232125207 $72 $111 forward @7 unknown T 16.421573282418567 -23.414213271912658 0 18.421572875253858 -20 0 #
-92 vertex $-1 -1 -1 $-1 $91 $112 #
-93 coedge $-1 -1 -1 $-1 $75 $113 $-1 $114 reversed $10 $-1 #
-94 edge $-1 -1 -1 $-1 $115 0 $95 6.6019715813537623 $75 $116 forward @7 unknown T 23.757357385172945 -19.402427794963039 0 29.152642613257594 -15.597572203930145 0 #
-95 vertex $-1 -1 -1 $-1 $76 $117 #
-96 ellipse-curve $-1 -1 -1 $-1 24.91 -13.963125813715742 0 -0 -0 -1 2.0000000000000613 0 0 1 I I #
-97 point $-1 -1 -1 $-1 22.91 -13.963126306703106 0 #
-98 coedge $-1 -1 -1 $-1 $118 $80 $-1 $119 reversed $8 $-1 #
-99 edge $-1 -1 -1 $-1 $100 0 $120 6.9633694020932069 $80 $121 forward @7 unknown T -30 -28.000000442039877 0 -30 -21.03663103994667 0 #
-100 vertex $-1 -1 -1 $-1 $99 $122 #
-101 ellipse-curve $-1 -1 -1 $-1 -28 -21.036631523587513 0 -0 -0 -1 2.0000000000000582 0 0 1 I I #
-102 point $-1 -1 -1 $-1 -29.152955203480815 -19.40240562158781 0 #
-103 coedge $-1 -1 -1 $-1 $85 $123 $-1 $124 forward $8 $-1 #
-104 edge $-1 -1 -1 $-1 $105 -0.78539796903131665 $125 -1.9542689777551665e-07 $85 $126 forward @7 unknown T -15.585786162751685 -27.078426733892396 0 -15 -25.664213837248315 0 #
-105 vertex $-1 -1 -1 $-1 $86 $127 #
-106 straight-curve $-1 -1 -1 $-1 -15.585786162751685 -25.664213837248315 0 -0.70710678118654757 0.70710678118654757 0 I I #
-107 point $-1 -1 -1 $-1 -17.835786733755487 -23.414213266244513 0 #
-108 coedge $-1 -1 -1 $-1 $128 $90 $-1 $129 reversed $10 $-1 #
-109 edge $-1 -1 -1 $-1 $110 0 $130 3.1819813124565819 $90 $131 forward @7 unknown T 15.585786164440425 -25.664213835559575 0 17.835786728087346 -23.414213271912658 0 #
-110 vertex $-1 -1 -1 $-1 $109 $132 #
-111 ellipse-curve $-1 -1 -1 $-1 16.421572875253815 -22 0 0 0 1 2.0000000000000409 0 0 1 I I #
-112 point $-1 -1 -1 $-1 16.421573282418567 -20 0 #
-113 coedge $-1 -1 -1 $-1 $93 $133 $-1 $134 forward $10 $-1 #
-114 edge $-1 -1 -1 $-1 $115 -0.95657627408207779 $135 -2.4119636599095376e-07 $93 $136 forward @7 unknown T 29.152642613257594 -21.036873703891523 0 30.000000000000004 -19.402427794963039 0 #
-115 vertex $-1 -1 -1 $-1 $94 $137 #
-116 straight-curve $-1 -1 -1 $-1 29.152642613257594 -19.402427794963039 0 -0.81722333421167548 0.57632111016338117 0 I I #
-117 point $-1 -1 -1 $-1 23.757357385172945 -15.597572203930145 0 #
-118 coedge $-1 -1 -1 $-1 $123 $98 $-1 $138 forward $8 $-1 #
-119 edge $-1 -1 -1 $-1 $139 1.5707965481283033 $120 3.1415924325698548 $98 $140 forward @7 unknown T -30 -30 0 -28.000000442666813 -28.000000442039877 0 #
-120 vertex $-1 -1 -1 $-1 $119 $141 #
-121 straight-curve $-1 -1 -1 $-1 -30 -21.03663103994667 0 0 -1 0 I I #
-122 point $-1 -1 -1 $-1 -30 -21.03663103994667 0 #
-123 coedge $-1 -1 -1 $-1 $103 $118 $-1 $142 forward $8 $-1 #
-124 edge $-1 -1 -1 $-1 $143 0 $125 0.92157370877441736 $103 $144 forward @7 unknown T -15 -28.000000442666813 0 -15 -27.078426733892396 0 #
-125 vertex $-1 -1 -1 $-1 $104 $145 #
-126 ellipse-curve $-1 -1 -1 $-1 -17 -27.078427124746192 0 -0 -0 -1 2.0000000000000386 0 0 1 I I #
-127 point $-1 -1 -1 $-1 -15.585786162751685 -25.664213837248315 0 #
-128 coedge $-1 -1 -1 $-1 $146 $108 $-1 $147 forward $10 $-1 #
-129 edge $-1 -1 -1 $-1 $148 -3.1415924584810178 $130 -2.3561946833643574 $108 $149 forward @7 unknown T 15 -27.078426734528641 0 15.585786164440425 -25.664213835559575 0 #
-130 vertex $-1 -1 -1 $-1 $129 $150 #
-131 straight-curve $-1 -1 -1 $-1 17.835786728087346 -23.414213271912658 0 -0.70710678118654846 -0.70710678118654791 0 I I #
-132 point $-1 -1 -1 $-1 17.835786728087346 -23.414213271912658 0 #
-133 coedge $-1 -1 -1 $-1 $113 $151 $-1 $152 reversed $10 $-1 #
-134 edge $-1 -1 -1 $-1 $153 0 $135 6.9631267387752906 $113 $154 forward @7 unknown T 30 -28.000000442666813 0 30.000000000000004 -21.036873703891523 0 #
-135 vertex $-1 -1 -1 $-1 $114 $155 #
-136 ellipse-curve $-1 -1 -1 $-1 28 -21.036874186284255 0 -0 -0 -1 2.0000000000000604 0 0 1 I I #
-137 point $-1 -1 -1 $-1 29.152642613257594 -19.402427794963039 0 #
-138 edge $-1 -1 -1 $-1 $139 0 $156 11.000000885333627 $118 $157 forward @7 unknown T -28.000000442666813 -30 0 -16.999999557333187 -30 0 #
-139 vertex $-1 -1 -1 $-1 $138 $158 #
-140 ellipse-curve $-1 -1 -1 $-1 -28 -28 0 -0 -0 -1 2.0000000000000488 0 0 1 I I #
-141 point $-1 -1 -1 $-1 -30 -28.000000442039877 0 #
-142 edge $-1 -1 -1 $-1 $156 -1.5707961054614898 $143 -2.2133340671359382e-07 $123 $159 forward @7 unknown T -16.999999557333187 -30 0 -15 -28.000000442666813 0 #
-143 vertex $-1 -1 -1 $-1 $124 $160 #
-144 straight-curve $-1 -1 -1 $-1 -15 -28.000000442666813 0 0 1 0 I I #
-145 point $-1 -1 -1 $-1 -15 -27.078426733892396 0 #
-146 coedge $-1 -1 -1 $-1 $151 $128 $-1 $161 reversed $10 $-1 #
-147 edge $-1 -1 -1 $-1 $148 0 $162 0.9215737075112358 $128 $163 forward @7 unknown T 15 -28.000000442039877 0 15 -27.078426734528641 0 #
-148 vertex $-1 -1 -1 $-1 $147 $164 #
-149 ellipse-curve $-1 -1 -1 $-1 17 -27.078427124746192 0 -0 -0 -1 2.0000000000000377 0 0 1 I I #
-150 point $-1 -1 -1 $-1 15.585786164440425 -25.664213835559575 0 #
-151 coedge $-1 -1 -1 $-1 $133 $146 $-1 $165 forward $10 $-1 #
-152 edge $-1 -1 -1 $-1 $153 2.2133340671359382e-07 $166 1.5707961054614898 $133 $167 forward @7 unknown T 28.000000442666813 -30 0 30 -28.000000442666813 0 #
-153 vertex $-1 -1 -1 $-1 $134 $168 #
-154 straight-curve $-1 -1 -1 $-1 30 -28.000000442666813 0 0 1 0 I I #
-155 point $-1 -1 -1 $-1 30.000000000000004 -21.036873703891523 0 #
-156 vertex $-1 -1 -1 $-1 $142 $169 #
-157 straight-curve $-1 -1 -1 $-1 -28.000000442666813 -30 0 1 0 0 I I #
-158 point $-1 -1 -1 $-1 -28.000000442666813 -30 0 #
-159 ellipse-curve $-1 -1 -1 $-1 -17 -28 0 0 0 1 2.0000000000000488 0 0 1 I I #
-160 point $-1 -1 -1 $-1 -15 -28.000000442666813 0 #
-161 edge $-1 -1 -1 $-1 $170 1.5707965481283033 $162 3.1415924325698548 $146 $171 forward @7 unknown T 15 -30 0 16.999999557333187 -28.000000442039877 0 #
-162 vertex $-1 -1 -1 $-1 $161 $172 #
-163 straight-curve $-1 -1 -1 $-1 15 -27.078426734528641 0 0 -1 0 I I #
-164 point $-1 -1 -1 $-1 15 -27.078426734528641 0 #
-165 edge $-1 -1 -1 $-1 $170 0 $166 11.000000885333627 $151 $173 forward @7 unknown T 16.999999557333187 -30 0 28.000000442666813 -30 0 #
-166 vertex $-1 -1 -1 $-1 $152 $174 #
-167 ellipse-curve $-1 -1 -1 $-1 28 -28 0 -0 -0 -1 2.0000000000000488 0 0 1 I I #
-168 point $-1 -1 -1 $-1 30 -28.000000442666813 0 #
-169 point $-1 -1 -1 $-1 -16.999999557333187 -30 0 #
-170 vertex $-1 -1 -1 $-1 $165 $175 #
-171 ellipse-curve $-1 -1 -1 $-1 17 -28 0 -0 -0 -1 2.0000000000000488 0 0 1 I I #
-172 point $-1 -1 -1 $-1 15 -28.000000442039877 0 #
-173 straight-curve $-1 -1 -1 $-1 16.999999557333187 -30 0 1 0 0 I I #
-174 point $-1 -1 -1 $-1 28.000000442666813 -30 0 #
-175 point $-1 -1 -1 $-1 16.999999557333187 -30 0 #
End-of-ACIS-data 
